<?xml version="1.0" encoding="utf-8"?>
<!-- Generator: Adobe Illustrator 15.0.0, SVG Export Plug-In . SVG Version: 6.00 Build 0)  -->
<!DOCTYPE svg PUBLIC "-//W3C//DTD SVG 1.1//EN" "http://www.w3.org/Graphics/SVG/1.1/DTD/svg11.dtd">
<svg version="1.1" id="Calque_1" xmlns="http://www.w3.org/2000/svg" xmlns:xlink="http://www.w3.org/1999/xlink" x="0px" y="0px"
	 width="327.389676074" height="305.446406249" viewBox="0 0 535.92 500" enable-background="new 0 0 535.92 500" xml:space="preserve">
<linearGradient id="SVGID_1_" gradientUnits="userSpaceOnUse" x1="167.8296" y1="420.8315" x2="167.8296" y2="46.8896">
	<stop  offset="0" style="stop-color:#000000"/>
	<stop  offset="0.1111" style="stop-color:#4D4D4F"/>
	<stop  offset="0.3785" style="stop-color:#919396"/>
	<stop  offset="0.5" style="stop-color:#ACAEB1"/>
	<stop  offset="0.6036" style="stop-color:#8E9093"/>
	<stop  offset="0.7919" style="stop-color:#5C5D60"/>
	<stop  offset="0.9292" style="stop-color:#2E2E2F"/>
	<stop  offset="1" style="stop-color:#000000"/>
</linearGradient>
<path fill="url(#SVGID_1_)" d="M69.939,62.983c-59.467,29.462-46.684,40.026-50.021,50.036
	c-3.336,10.011-10.564,15.561-10.564,15.561c-20.021,19.451-1.673,26.684-1.673,26.684c28.912,22.234,41.139,60.042,41.139,60.042
	c55.042,118.39,132.856,176.204,132.856,176.204C132.199,343.14,63.831,219.186,64.939,219.75
	c1.109,0.549-19.446-46.151-40.585-62.829c-21.119-16.674-9.436-11.11-1.098-22.794c8.337-11.658,3.316-25,3.316-25
	c-3.871-26.125,38.368-34.461,62.27-46.7c23.901-12.238,31.694-8.337,31.694-8.337c-1.672,10.565-18.901,12.229-3.336,58.927
	c15.554,46.69,11.663,72.261,11.663,72.261c7.792,62.259,53.933,185.099,53.933,185.099c22.783,58.379,47.793,50.042,47.793,50.042
	c28.912-3.343,64.488-124.519,64.488-124.519c29.466-88.944,28.347-100.627,25.574-115.628c-2.793-15.015,4.445-37.808,4.445-37.808
	c26.13-68.912-4.445-90.602-4.445-90.602c3.326,5.56,18.348,35.576,1.109,67.82c-17.229,32.233-15.011,64.492-15.565,76.709
	c-0.555,12.233-10.01,63.928-10.01,63.928c-32.794,138.42-58.357,147.307-58.357,147.307
	c-41.694,27.798-95.053-210.68-98.944-235.69c-3.902-25.021-20.021-65.596-20.021-65.596c-11.11-34.461,4.446-52.809,4.446-52.809
	s2.032-6.643-7.609-6.643C108.595,46.889,95.166,50.498,69.939,62.983"/>
<linearGradient id="SVGID_2_" gradientUnits="userSpaceOnUse" x1="291.8154" y1="500.0005" x2="291.8154" y2="60.1494">
	<stop  offset="0" style="stop-color:#000000"/>
	<stop  offset="0.1111" style="stop-color:#4D4D4F"/>
	<stop  offset="0.3785" style="stop-color:#919396"/>
	<stop  offset="0.5" style="stop-color:#ACAEB1"/>
	<stop  offset="0.6036" style="stop-color:#8E9093"/>
	<stop  offset="0.7919" style="stop-color:#5C5D60"/>
	<stop  offset="0.9292" style="stop-color:#2E2E2F"/>
	<stop  offset="1" style="stop-color:#000000"/>
</linearGradient>
<path fill="url(#SVGID_2_)" d="M335.651,61.314c27.237,0,99.498,12.239,91.17,44.472c-8.336,32.243,13.348,19.451,5.566,33.917
	c-7.793,14.446-21.131,17.778-40.033,61.135c-18.9,43.358-81.714,153.982-112.844,185.669
	c-31.129,31.674-23.347,33.913-23.347,33.913c0.554,6.668,25.575,0,25.575,0c5.556-2.783,7.783,0,7.783,0
	c46.13,45.575,14.456,54.471,14.456,54.471c-130.638,33.918-164.551-5.004-164.551-5.004c5,34.477,130.628,36.693,166.768,20.01
	c36.13-16.663,22.238-35.58,8.892-67.271c-6.067-14.398-25.278-10.754-39.507-7.104c-17.064,4.384-27.024,8.757,1.149-17.896
	c51.704-48.918,116.182-160.1,125.628-189.012c9.456-28.886,30.031-46.68,30.031-46.68c25.563-28.911,1.098-31.694,4.989-41.705
	c3.891-10,4.445-20,4.445-20c-3.408-34.62-51.858-40.083-82.106-40.083C345.742,60.149,335.651,61.314,335.651,61.314"/>
<path fill="#089748" d="M166.994,47.777c0,0,68.809,17.225,152.772-14.697C403.732,1.175,299.85,7.253,299.85,7.253l-77.023,10.123
	c0,0,98.235-11.653,111.644-2.022c0,0,18.624,16.211-111.644,32.423C222.826,47.777,188.637,49.81,166.994,47.777"/>
<path fill="#E3313D" d="M202.487,0.661c0,0-124.642-6.58-100.833,21.782c23.8,28.378,164.016,14.697,178.298,7.099
	c0,0-120.309,19.754-162.723-9.63C117.229,19.913,93.431,3.198,202.487,0.661"/>
<path fill="#E3313D" d="M177.528,413.567c-0.595-2.552-20.01-30.579-22.772-78.543c-1.293-23.583,2.824-51.33,14.025-77.604
	c10.647-26.366,29.23-51.346,49.18-71.059c20.462-20.344,42.844-35.934,61.592-49.97c9.395-6.981,18.121-13.824,25.688-20.195
	c6.303-5.466,12.443-12.227,16.98-18.254c9.765-12.27,11.366-22.685,10.762-21.51c0.451,1.473,0.8,1.545,0.604,1.304
	c1.406-0.811,2.526-2.66,4.518-2.115c1.859,0.58,3.491,3.85,3.881,8.116c-3.952,10.493-13.121,22.31-23.079,32.018
	c-9.354,9.143-22.835,18.46-35.34,27.449c-25.524,17.86-54.364,37.353-77.424,63.913c-23.748,26.375-41.613,60.02-47.362,97.142
	C152.774,341.277,160.084,380.621,177.528,413.567"/>
<path fill="#E3313D" d="M170.896,358.731c-0.133-2.018-6.92-26.392-0.657-61.054c3.121-17.146,9.568-36.447,20.083-54.867
	c10.626-18.455,24.671-35.811,40.462-50.837c31.858-29.877,67.772-51.104,87.865-70.478c20.482-19.893,25.72-36.345,25.432-35.79
	c0.257,7.494-1.806,16.381-4.836,24.969c-30.935,37.336-81.263,57.552-117.845,97.039
	C183.996,245.321,160.177,302.462,170.896,358.731"/>
<path fill="#E3313D" d="M180.321,316.548c0.215-1.591,0.605-19.852,9.609-44.18c8.891-24.307,28.316-52.808,53.154-75.088
	c24.692-22.475,52.411-40.211,71.16-55.76c19.198-14.954,28.07-28.629,28.204-28.44c-2.599,7.075-5.812,14.118-9.632,20.986
	c-31.407,27.618-67.813,46.412-97.105,75.099C206.347,237.107,184.191,274.735,180.321,316.548"/>
<path fill="#E3313D" d="M194.509,294.022c0.38-1.155,2.813-14.445,11.5-31.813c8.348-17.433,23.697-38.25,42.599-55.585
	c18.716-17.474,40.257-32.203,56.005-44.2c15.854-11.89,25.925-20.637,26.027-20.806c-3.768,5.637-6.929,10.462-10.718,15.708
	c-26.89,20.124-54.456,36.705-76.88,58.517C220.516,237.554,202.61,263.858,194.509,294.022"/>
<path fill="#E3313D" d="M208.904,279.156c0.103-1.92,14.98-37.701,45.001-64.549c28.87-26.34,65.082-50.078,64.537-50.822
	l-8.941,12.12c-21.777,15.298-42.444,29.215-59.786,45.858C232.179,238.667,218.093,257.456,208.904,279.156"/>
<path fill="#E3313D" d="M220.023,271.979c0.38-1.515,13.163-27.577,35.842-48.953c21.57-21.017,49.62-39.719,49.415-40.051
	c-2.34,3.141-4.733,6.304-7.002,9.404C264.633,215.33,236.553,239.889,220.023,271.979"/>
<path fill="#089748" d="M271.41,413.567c0.605-2.552,20.021-30.579,22.772-78.543c1.294-23.583-2.813-51.33-14.025-77.604
	c-10.625-26.355-29.22-51.346-49.169-71.059c-20.462-20.344-42.854-35.934-61.591-49.97c-9.395-6.981-18.132-13.824-25.688-20.195
	c-6.304-5.466-12.443-12.227-16.971-18.254c-9.774-12.27-11.386-22.685-10.771-21.51c-0.441,1.473-0.8,1.545-0.616,1.304
	c-1.386-0.811-2.525-2.67-4.507-2.115c-1.859,0.58-3.491,3.85-3.88,8.116c3.962,10.493,13.121,22.31,23.08,32.028
	c9.353,9.133,22.834,18.46,35.329,27.438c25.534,17.86,54.375,37.353,77.435,63.913c23.737,26.386,41.612,60.02,47.351,97.142
	C296.174,341.277,288.854,380.621,271.41,413.567"/>
<path fill="#089748" d="M278.053,358.731c0.134-2.018,6.91-26.392,0.647-61.054c-3.111-17.146-9.569-36.447-20.083-54.867
	c-10.616-18.455-24.661-35.801-40.442-50.837c-31.879-29.877-67.793-51.104-87.886-70.468c-20.472-19.902-25.708-36.354-25.431-35.8
	c-0.247,7.494,1.807,16.381,4.846,24.969c30.935,37.336,81.274,57.552,117.845,97.039
	C264.952,245.321,288.771,302.462,278.053,358.731"/>
<path fill="#089748" d="M268.628,316.548c-0.237-1.581-0.607-19.841-9.61-44.18c-8.892-24.307-28.327-52.808-53.153-75.088
	c-24.693-22.464-52.414-40.201-71.161-55.76c-19.209-14.954-28.07-28.629-28.203-28.44c2.597,7.085,5.811,14.118,9.631,20.996
	c31.396,27.608,67.813,46.417,97.095,75.089C242.59,237.107,264.757,274.735,268.628,316.548"/>
<path fill="#089748" d="M254.429,294.022c-0.37-1.155-2.804-14.445-11.489-31.802c-8.348-17.443-23.697-38.261-42.598-55.596
	c-18.717-17.474-40.258-32.203-56.007-44.2c-15.842-11.878-25.925-20.637-26.027-20.806c3.768,5.637,6.92,10.462,10.719,15.708
	c26.879,20.124,54.446,36.705,76.88,58.527C228.433,237.554,246.338,263.868,254.429,294.022"/>
<path fill="#089748" d="M240.043,279.156c-0.112-1.92-14.989-37.69-45-64.549c-28.871-26.34-65.083-50.078-64.539-50.822
	l8.953,12.12c21.767,15.298,42.434,29.215,59.764,45.858C216.758,238.667,230.855,257.456,240.043,279.156"/>
<path fill="#089748" d="M228.925,271.979c-0.391-1.515-13.163-27.577-35.853-48.953c-21.562-21.017-49.61-39.719-49.415-40.042
	c2.35,3.131,4.733,6.294,7.012,9.399C184.304,215.33,212.384,239.894,228.925,271.979"/>
<path fill="#089748" d="M535.334,399.616v-18.077c0-6.412-2.617-11.227-7.863-14.436l-36.706-21.643l36.706-21.647
	c5.246-3.209,7.863-8.015,7.863-14.426v-19.241h-76.016v21.639h49.805l-49.805,28.859v9.632l49.805,28.855h-49.805v19.917
	c-0.3,0.657-0.453,1.335-0.453,2.013c0,1.503,0.729,2.994,2.095,4.144l30.884,25.693c1.458,1.207,3.46,1.884,5.565,1.884
	c2.104,0,4.105-0.688,5.554-1.894l30.585-25.52C535.4,403.818,536.053,401.631,535.334,399.616z"/>
<path fill="#E3313D" d="M533.548,488.999l-30.585-25.523c-1.448-1.201-3.45-1.885-5.554-1.885c-2.105,0-4.107,0.673-5.565,1.885
	l-30.884,25.693c-1.365,1.145-2.095,2.638-2.095,4.143c0,0.812,0.206,1.618,0.637,2.397c1.202,2.207,3.983,3.634,7.044,3.625
	l61.468-0.175c3.05-0.012,5.793-1.442,6.993-3.65C536.208,493.3,535.634,490.745,533.548,488.999z"/>
<path fill="#FFFFFF" d="M533.548,405.369l-30.585,25.52c-1.448,1.206-3.45,1.894-5.554,1.894c-2.105,0-4.107-0.677-5.565-1.884
	l-30.884-25.693c-0.365-0.309-0.681-0.642-0.954-0.991v21.196l26.561,21.937l-26.561,21.929v20.882
	c0.273-0.35,0.589-0.683,0.954-0.988l30.884-25.693c1.458-1.212,3.46-1.885,5.565-1.885c2.104,0,4.105,0.684,5.554,1.885
	l30.585,25.523c0.275,0.229,0.52,0.474,0.74,0.729v-20.453l-26.192-21.929l26.192-21.921v-20.786
	C534.067,404.894,533.823,405.139,533.548,405.369z"/>
<path d="M460.006,469.275l26.561-21.929l-26.561-21.937v-21.196c-0.746-0.958-1.141-2.052-1.141-3.152
	c0-0.081,0.011-0.163,0.016-0.244l-0.262-0.186v25.349l25.874,21.366l-25.874,21.36v24.626l0.255-0.178
	c0.036-1.049,0.422-2.085,1.132-2.998V469.275z"/>
<path d="M535.684,400.42l-0.118,0.09c0.225,1.445-0.224,2.915-1.277,4.129v20.786l-26.192,21.921l26.192,21.929v20.453
	c0.873,1.005,1.321,2.186,1.326,3.383l0.069,0.052v-24.447l-25.534-21.369l25.534-21.366V400.42z"/>
<path d="M497.172,0.343h0.217c21.18,0,38.531,16.674,38.531,40.412c0,14.435-4.784,23.172-11.602,30.667l-9.692-8.839
	c5.544-6.269,9.261-12.988,9.261-21.941c0-15.005-11.715-25.868-26.293-25.868h-0.205c-14.59,0-26.51,10.863-26.51,25.868
	c0,9.631,3.727,15.781,9.681,22.496l-8.511,8.845c-8.091-8.172-13.193-17.131-13.193-31.782
	C458.855,17.351,475.776,0.343,497.172,0.343"/>
<path d="M497.172,136.059h0.217c14.476,0,26.498-11.084,26.498-26.644c0-15.559-11.816-26.417-26.293-26.417h-0.205
	c-14.478,0-26.51,11.089-26.51,26.648S482.696,136.059,497.172,136.059 M497.172,68.563h0.217c20.976,0,38.531,17.018,38.531,41.084
	c0,24.066-17.352,40.857-38.326,40.857h-0.205c-20.977,0-38.533-17.022-38.533-41.089C458.855,85.35,476.197,68.563,497.172,68.563"
	/>
<path d="M495.89,186.151c0,10.411,5.543,16.905,13.314,16.905h0.206c8.737,0,13.317-6.602,13.317-16.905V170.15H495.89V186.151z
	 M534.647,156.377v30.899c0,18.244-9.908,29.774-24.908,29.774h-0.226c-16.705,0-25.441-14.107-25.441-31.34v-15.56h-23.943v-13.773
	H534.647z"/>
<path d="M489.718,258.611l29.806-13.537l-29.806-13.439V258.611z M535.181,238.909v12.768l-75.042,34.472V271.6l17.988-7.948
	v-37.043l-17.988-8.059v-14.103L535.181,238.909z"/>
</svg>
